HIERARCHY
ROOT root
{
  OFFSET 0 93.2929 0
  CHANNELS 6 Xposition Yposition Zposition Zrotation Xrotation Yrotation
  JOINT torso_1
  {
    OFFSET 0 5.07867 -1.15138
    CHANNELS 6 Xposition Yposition Zposition Zrotation Xrotation Yrotation
    JOINT torso_2
    {
      OFFSET 0 5.61661 1.07143
      CHANNELS 6 Xposition Yposition Zposition Zrotation Xrotation Yrotation
      JOINT torso_3
      {
        OFFSET -1.02604e-17 5.98978 0.11501
        CHANNELS 6 Xposition Yposition Zposition Zrotation Xrotation Yrotation
        JOINT torso_4
        {
          OFFSET -1.10457e-17 6.50583 -0.443523
          CHANNELS 6 Xposition Yposition Zposition Zrotation Xrotation Yrotation
          JOINT torso_5
          {
            OFFSET -1.97295e-17 7.60548 -1.50593
            CHANNELS 6 Xposition Yposition Zposition Zrotation Xrotation Yrotation
            JOINT torso_6
            {
              OFFSET -2.53307e-17 9.49737 -0.914492
              CHANNELS 6 Xposition Yposition Zposition Zrotation Xrotation Yrotation
              JOINT torso_7
              {
                OFFSET -2.90401e-17 10.5513 1.57691
                CHANNELS 6 Xposition Yposition Zposition Zrotation Xrotation Yrotation
                JOINT neck_1
                {
                  OFFSET -1.29193e-17 4.78644 0.715339
                  CHANNELS 6 Xposition Yposition Zposition Zrotation Xrotation Yrotation
                  JOINT neck_2
                  {
                    OFFSET -1.8116e-17 4.82109 0.421791
                    CHANNELS 6 Xposition Yposition Zposition Zrotation Xrotation Yrotation
                    JOINT head
                    {
                      OFFSET -2.00958e-17 4.83041 0.765062
                      CHANNELS 6 Xposition Yposition Zposition Zrotation Xrotation Yrotation
                      End Site
                      {
                        OFFSET 0 0.1 0
                      }
                    }
                  }
                }
                JOINT l_shoulder
                {
                  OFFSET 1.23299 -7.60731 7.53374
                  CHANNELS 6 Xposition Yposition Zposition Zrotation Xrotation Yrotation
                  JOINT l_up_arm
                  {
                    OFFSET 12.9547 3.2495 -3.26872
                    CHANNELS 6 Xposition Yposition Zposition Zrotation Xrotation Yrotation
                    JOINT l_low_arm
                    {
                      OFFSET 29.2081 0.0598081 0.137039
                      CHANNELS 6 Xposition Yposition Zposition Zrotation Xrotation Yrotation
                      JOINT l_hand
                      {
                        OFFSET 24.234 0.0496219 0.113701
                        CHANNELS 6 Xposition Yposition Zposition Zrotation Xrotation Yrotation
                        End Site
                        {
                          OFFSET 0.1 0 0
                        }
                      }
                    }
                  }
                }
                JOINT r_shoulder
                {
                  OFFSET -1.23299 -7.60729 7.53365
                  CHANNELS 6 Xposition Yposition Zposition Zrotation Xrotation Yrotation
                  JOINT r_up_arm
                  {
                    OFFSET -12.9547 3.2495 -3.26872
                    CHANNELS 6 Xposition Yposition Zposition Zrotation Xrotation Yrotation
                    JOINT r_low_arm
                    {
                      OFFSET -29.2081 0.0598081 0.137039
                      CHANNELS 6 Xposition Yposition Zposition Zrotation Xrotation Yrotation
                      JOINT r_hand
                      {
                        OFFSET -24.234 0.0496218 0.113702
                        CHANNELS 6 Xposition Yposition Zposition Zrotation Xrotation Yrotation
                        End Site
                        {
                          OFFSET -0.1 0 0
                        }
                      }
                    }
                  }
                }
              }
            }
          }
        }
      }
    }
  }
  JOINT l_up_leg
  {
    OFFSET 9.23673 -4.20556 2.0327
    CHANNELS 6 Xposition Yposition Zposition Zrotation Xrotation Yrotation
    JOINT l_low_leg
    {
      OFFSET -0.852353 -38.7721 -0.655187
      CHANNELS 6 Xposition Yposition Zposition Zrotation Xrotation Yrotation
      JOINT l_foot
      {
        OFFSET -2.32622 -40.4017 -6.04875
        CHANNELS 6 Xposition Yposition Zposition Zrotation Xrotation Yrotation
        JOINT l_toes
        {
          OFFSET 0.779096 -9.8844 12.4959
          CHANNELS 6 Xposition Yposition Zposition Zrotation Xrotation Yrotation
          End Site
          {
            OFFSET 0 0 0.1
          }
        }
      }
    }
  }
  JOINT r_up_leg
  {
    OFFSET -9.23673 -4.20556 2.0327
    CHANNELS 6 Xposition Yposition Zposition Zrotation Xrotation Yrotation
    JOINT r_low_leg
    {
      OFFSET 0.852353 -38.7721 -0.655187
      CHANNELS 6 Xposition Yposition Zposition Zrotation Xrotation Yrotation
      JOINT r_foot
      {
        OFFSET 2.32622 -40.4017 -6.04875
        CHANNELS 6 Xposition Yposition Zposition Zrotation Xrotation Yrotation
        JOINT r_toes
        {
          OFFSET -0.779096 -9.8844 12.4959
          CHANNELS 6 Xposition Yposition Zposition Zrotation Xrotation Yrotation
          End Site
          {
            OFFSET 0 0 0.1
          }
        }
      }
    }
  }
}
MOTION
Frames: 7
Frame Time: 0.016667
0 93.2929 0 -0 0 -0 0 5.07867 -1.15138 -0 0 -0 0 5.61661 1.07143 -0 0 -0 -1.02604e-17 5.98978 0.11501 -0 0 -0 -1.10457e-17 6.50583 -0.443523 -0 0 -0 -1.97295e-17 7.60548 -1.50593 -0 0 -0 -2.53307e-17 9.49737 -0.914492 -0 0 -0 -2.90401e-17 10.5513 1.57691 -0 0 -0 -1.29193e-17 4.78644 0.715339 -0 0 -0 -1.8116e-17 4.82109 0.421791 -0 0 -0 -2.00958e-17 4.83041 0.765062 -0 0 -0 1.23299 -7.60731 7.53374 -0 0 -0 12.9547 3.2495 -3.26872 -0 0 -0 29.2081 0.0598081 0.137039 -0 0 -0 24.234 0.0496219 0.113701 -0 0 -0 -1.23299 -7.60729 7.53365 -0 0 -0 -12.9547 3.2495 -3.26872 -0 0 -0 -29.2081 0.0598081 0.137039 -0 0 -0 -24.234 0.0496218 0.113702 -0 0 -0 9.23673 -4.20556 2.0327 -0 0 -0 -0.852353 -38.7721 -0.655187 -0 0 -0 -2.32622 -40.4017 -6.04875 -0 0 -0 0.779096 -9.8844 12.4959 -0 0 -0 -9.23673 -4.20556 2.0327 -0 0 -0 0.852353 -38.7721 -0.655187 -0 0 -0 2.32622 -40.4017 -6.04875 -0 0 -0 -0.779096 -9.8844 12.4959 -0 0 -0 
-12.7068 92.5583 54.3708 -1.50958 -0.456219 9.15672 0 5.07867 -1.15138 -0.738236 1.47006 -0.170163 0 5.61661 1.07143 -0.429759 1.53151 -0.323507 -1.02604e-17 5.98978 0.11501 -0.26935 1.86005 -0.23426 -1.10457e-17 6.50583 -0.443523 -0.116743 2.07236 -0.222552 -1.97295e-17 7.60548 -1.50593 0.0122842 1.79058 -0.262069 -2.53307e-17 9.49737 -0.914492 0.16416 1.68597 -0.543158 -2.90401e-17 10.5513 1.57691 -0.0426115 0.832924 -0.0011568 -1.29193e-17 4.78644 0.715339 0.489523 -0.236823 2.5261 -1.8116e-17 4.82109 0.421791 -0.956987 -2.64361 0.991116 -2.00958e-17 4.83041 0.765062 -2.59862 -1.45291 3.17007 1.23299 -7.60731 7.53374 -1.99862 3.50611 -2.13425 12.9547 3.2495 -3.26872 -79.731 16.9157 -6.84887 29.2081 0.0598081 0.137039 1.80983 -0.129171 -8.75422 24.234 0.0496219 0.113701 1.4282 -18.4728 -3.5071 -1.23299 -7.60729 7.53365 3.93556 4.20174 2.16813 -12.9547 3.2495 -3.26872 78.7362 16.0142 3.18238 -29.2081 0.0598081 0.137039 -2.15417 -0.185394 10.4341 -24.234 0.0496218 0.113702 1.0822 -17.0351 5.67981 9.23673 -4.20556 2.0327 1.6291 -3.25959 -16.5156 -0.852353 -38.7721 -0.655187 -0.264853 0.988787 -0.0149738 -2.32622 -40.4017 -6.04875 1.48249 -2.47219 15.1926 0.779096 -9.8844 12.4959 2.48481e-17 -7.95139e-16 1.2424e-17 -9.23673 -4.20556 2.0327 -4.19771 -5.84909 16.5344 0.852353 -38.7721 -0.655187 2.5957 9.64762 -0.0502711 2.32622 -40.4017 -6.04875 3.19147 -2.83139 -15.5977 -0.779096 -9.8844 12.4959 -9.11472e-16 -5.49234e-16 -1.27274e-14 
-12.6379 92.5695 54.389 -1.4549 -0.531322 9.06145 0 5.07867 -1.15138 -0.759553 1.53213 -0.173092 0 5.61661 1.07143 -0.447526 1.57327 -0.329415 -1.02604e-17 5.98978 0.11501 -0.283247 1.88432 -0.24016 -1.10457e-17 6.50583 -0.443523 -0.127052 2.06923 -0.228435 -1.97295e-17 7.60548 -1.50593 0.00413805 1.76889 -0.26712 -2.53307e-17 9.49737 -0.914492 0.158649 1.6592 -0.548032 -2.90401e-17 10.5513 1.57691 -0.0439317 0.838155 0.000568356 -1.29193e-17 4.78644 0.715339 0.509869 -0.32937 2.74746 -1.8116e-17 4.82109 0.421791 -0.978206 -2.70502 1.09086 -2.00958e-17 4.83041 0.765062 -2.6386 -1.48336 3.19831 1.23299 -7.60731 7.53374 -1.98141 3.53579 -2.16987 12.9547 3.2495 -3.26872 -79.5016 16.7523 -7.05757 29.2081 0.0598081 0.137039 1.79776 -0.127384 -8.69547 24.234 0.0496219 0.113701 1.51339 -18.1177 -3.45334 -1.23299 -7.60729 7.53365 4.03811 4.25732 2.2299 -12.9547 3.2495 -3.26872 78.6945 15.9539 3.22455 -29.2081 0.0598081 0.137039 -2.14831 -0.184348 10.4055 -24.234 0.0496218 0.113702 1.08723 -16.89 5.73128 9.23673 -4.20556 2.0327 1.55977 -3.12029 -16.4791 -0.852353 -38.7721 -0.655187 -0.246561 0.920472 -0.0140861 -2.32622 -40.4017 -6.04875 1.45733 -2.39028 15.1863 0.779096 -9.8844 12.4959 2.48481e-17 -7.95139e-16 1.2424e-17 -9.23673 -4.20556 2.0327 -4.30862 -6.0698 16.3391 0.852353 -38.7721 -0.655187 2.74644 10.1994 -0.0666144 2.32622 -40.4017 -6.04875 3.35926 -2.81194 -15.6094 -0.779096 -9.8844 12.4959 -7.45067e-16 -5.54435e-16 -1.27378e-14 
-12.5795 92.5863 54.394 -1.42095 -0.63051 8.99013 0 5.07867 -1.15138 -0.769778 1.59117 -0.175474 0 5.61661 1.07143 -0.455752 1.61566 -0.333271 -1.02604e-17 5.98978 0.11501 -0.289522 1.91311 -0.243696 -1.10457e-17 6.50583 -0.443523 -0.131594 2.07661 -0.231836 -1.97295e-17 7.60548 -1.50593 0.000664637 1.76027 -0.270392 -2.53307e-17 9.49737 -0.914492 0.156521 1.64748 -0.551779 -2.90401e-17 10.5513 1.57691 -0.0453296 0.841022 0.00191574 -1.29193e-17 4.78644 0.715339 0.533984 -0.406593 2.96957 -1.8116e-17 4.82109 0.421791 -0.991956 -2.76747 1.19135 -2.00958e-17 4.83041 0.765062 -2.69691 -1.53285 3.23381 1.23299 -7.60731 7.53374 -1.94236 3.55471 -2.20483 12.9547 3.2495 -3.26872 -79.2687 16.6058 -7.31383 29.2081 0.0598081 0.137039 1.78517 -0.125531 -8.63413 24.234 0.0496219 0.113701 1.58353 -17.814 -3.40613 -1.23299 -7.60729 7.53365 4.1286 4.30368 2.2795 -12.9547 3.2495 -3.26872 78.6443 15.9146 3.2864 -29.2081 0.0598081 0.137039 -2.14161 -0.183156 10.3727 -24.234 0.0496218 0.113702 1.09463 -16.7942 5.78027 9.23673 -4.20556 2.0327 1.52102 -2.99733 -16.4213 -0.852353 -38.7721 -0.655187 -0.2399 0.895595 -0.0137575 -2.32622 -40.4017 -6.04875 1.40672 -2.30871 15.1802 0.779096 -9.8844 12.4959 2.48481e-17 -7.95139e-16 1.2424e-17 -9.23673 -4.20556 2.0327 -4.42204 -6.2155 16.3425 0.852353 -38.7721 -0.655187 2.89458 10.7402 -0.0840927 2.32622 -40.4017 -6.04875 3.53792 -2.78843 -15.631 -0.779096 -9.8844 12.4959 -4.85694e-17 -5.87612e-16 -1.27699e-14 
-12.5385 92.6066 54.3896 -1.40306 -0.738251 8.94106 0 5.07867 -1.15138 -0.771005 1.63913 -0.176915 0 5.61661 1.07143 -0.456292 1.65165 -0.334882 -1.02604e-17 5.98978 0.11501 -0.289714 1.94007 -0.244626 -1.10457e-17 6.50583 -0.443523 -0.131539 2.08918 -0.23253 -1.97295e-17 7.60548 -1.50593 0.0010412 1.76121 -0.271469 -2.53307e-17 9.49737 -0.914492 0.157382 1.64716 -0.553924 -2.90401e-17 10.5513 1.57691 -0.0467833 0.841816 0.00285335 -1.29193e-17 4.78644 0.715339 0.560384 -0.472535 3.18644 -1.8116e-17 4.82109 0.421791 -1.0005 -2.82656 1.28971 -2.00958e-17 4.83041 0.765062 -2.75845 -1.58873 3.27087 1.23299 -7.60731 7.53374 -1.87706 3.56394 -2.2362 12.9547 3.2495 -3.26872 -79.0463 16.4925 -7.59377 29.2081 0.0598081 0.137039 1.77393 -0.123889 -8.57938 24.234 0.0496219 0.113701 1.63399 -17.5884 -3.37558 -1.23299 -7.60729 7.53365 4.20097 4.34255 2.31554 -12.9547 3.2495 -3.26872 78.5921 15.9084 3.35039 -29.2081 0.0598081 0.137039 -2.13434 -0.181866 10.3371 -24.234 0.0496218 0.113702 1.11192 -16.7751 5.82953 9.23673 -4.20556 2.0327 1.51257 -2.88061 -16.3654 -0.852353 -38.7721 -0.655187 -0.234311 0.874722 -0.0134795 -2.32622 -40.4017 -6.04875 1.31385 -2.22977 15.1771 0.779096 -9.8844 12.4959 2.48481e-17 -7.95139e-16 1.2424e-17 -9.23673 -4.20556 2.0327 -4.58055 -6.2347 16.5771 0.852353 -38.7721 -0.655187 3.04293 11.2801 -0.102998 2.32622 -40.4017 -6.04875 3.72071 -2.8221 -15.6666 -0.779096 -9.8844 12.4959 4.80021e-16 -6.13931e-16 -1.27895e-14 
-12.5198 92.6287 54.3791 -1.39113 -0.847441 8.91269 0 5.07867 -1.15138 -0.767929 1.67642 -0.176281 0 5.61661 1.07143 -0.453122 1.6798 -0.333602 -1.02604e-17 5.98978 0.11501 -0.286952 1.96206 -0.242235 -1.10457e-17 6.50583 -0.443523 -0.129235 2.10043 -0.22977 -1.97295e-17 7.60548 -1.50593 0.00386508 1.76444 -0.269255 -2.53307e-17 9.49737 -0.914492 0.161036 1.6502 -0.55335 -2.90401e-17 10.5513 1.57691 -0.0482068 0.841787 0.00357776 -1.29193e-17 4.78644 0.715339 0.588185 -0.541287 3.39031 -1.8116e-17 4.82109 0.421791 -1.00459 -2.87867 1.38239 -2.00958e-17 4.83041 0.765062 -2.80583 -1.62763 3.30204 1.23299 -7.60731 7.53374 -1.79344 3.57155 -2.26852 12.9547 3.2495 -3.26872 -78.8339 16.4287 -7.87508 29.2081 0.0598081 0.137039 1.76637 -0.122792 -8.54259 24.234 0.0496219 0.113701 1.665 -17.4662 -3.36632 -1.23299 -7.60729 7.53365 4.2574 4.38277 2.34599 -12.9547 3.2495 -3.26872 78.5362 15.9437 3.39697 -29.2081 0.0598081 0.137039 -2.12793 -0.180734 10.3058 -24.234 0.0496218 0.113702 1.15325 -16.8756 5.87645 9.23673 -4.20556 2.0327 1.52747 -2.75508 -16.3516 -0.852353 -38.7721 -0.655187 -0.220434 0.8229 -0.0127806 -2.32622 -40.4017 -6.04875 1.17238 -2.14744 15.1789 0.779096 -9.8844 12.4959 2.48481e-17 -7.95139e-16 1.2424e-17 -9.23673 -4.20556 2.0327 -4.80309 -6.10134 17.0308 0.852353 -38.7721 -0.655187 3.18634 11.8003 -0.122602 2.32622 -40.4017 -6.04875 3.92301 -2.92591 -15.7153 -0.779096 -9.8844 12.4959 1.48713e-16 -5.94789e-16 -1.27704e-14 
-12.5201 92.6481 54.3559 -1.38232 -0.946955 8.90271 0 5.07867 -1.15138 -0.764353 1.70403 -0.172724 0 5.61661 1.07143 -0.449238 1.70102 -0.328891 -1.02604e-17 5.98978 0.11501 -0.283183 1.98003 -0.235896 -1.10457e-17 6.50583 -0.443523 -0.125704 2.11127 -0.222786 -1.97295e-17 7.60548 -1.50593 0.00921975 1.77081 -0.26278 -2.53307e-17 9.49737 -0.914492 0.168779 1.6582 -0.549529 -2.90401e-17 10.5513 1.57691 -0.0494263 0.841149 0.00439354 -1.29193e-17 4.78644 0.715339 0.617357 -0.621915 3.57454 -1.8116e-17 4.82109 0.421791 -0.998831 -2.93494 1.46644 -2.00958e-17 4.83041 0.765062 -2.83284 -1.6546 3.32229 1.23299 -7.60731 7.53374 -1.69573 3.57817 -2.30027 12.9547 3.2495 -3.26872 -78.6236 16.424 -8.16203 29.2081 0.0598081 0.137039 1.76459 -0.122533 -8.5339 24.234 0.0496219 0.113701 1.67143 -17.4793 -3.38028 -1.23299 -7.60729 7.53365 4.31655 4.42768 2.37877 -12.9547 3.2495 -3.26872 78.4681 16.005 3.4322 -29.2081 0.0598081 0.137039 -2.12453 -0.180133 10.2891 -24.234 0.0496218 0.113702 1.21327 -17.1334 5.93425 9.23673 -4.20556 2.0327 1.55886 -2.65039 -16.4041 -0.852353 -38.7721 -0.655187 -0.205285 0.766328 -0.0120033 -2.32622 -40.4017 -6.04875 0.999859 -2.07669 15.1852 0.779096 -9.8844 12.4959 2.48481e-17 -7.95139e-16 1.2424e-17 -9.23673 -4.20556 2.0327 -4.99335 -5.9325 17.662 0.852353 -38.7721 -0.655187 3.30122 12.2157 -0.139246 2.32622 -40.4017 -6.04875 4.18332 -2.96974 -15.7643 -0.779096 -9.8844 12.4959 -1.82595e-16 -5.84436e-16 -1.276e-14 
